<svg aria-hidden="true" style="position: absolute; width: 0; height: 0; overflow: hidden;" version="1.1" xmlns="http://www.w3.org/2000/svg" xmlns:xlink="http://www.w3.org/1999/xlink">
<defs>
<symbol id="icon-heart" viewBox="0 0 32 32">
<path d="M29.193 5.265c-3.629-3.596-9.432-3.671-13.191-0.288-3.76-3.383-9.561-3.308-13.192 0.288-3.741 3.704-3.741 9.709 0 13.415 1.069 1.059 11.053 10.941 11.053 10.941 1.183 1.172 3.096 1.172 4.278 0 0 0 10.932-10.822 11.053-10.941 3.742-3.706 3.742-9.711-0.001-13.415zM27.768 17.268l-11.053 10.941c-0.393 0.391-1.034 0.391-1.425 0l-11.053-10.941c-2.95-2.92-2.95-7.671 0-10.591 2.844-2.815 7.416-2.914 10.409-0.222l1.356 1.22 1.355-1.22c2.994-2.692 7.566-2.594 10.41 0.222 2.95 2.919 2.95 7.67 0.001 10.591zM9.253 7.501c0.277 0 0.5 0.224 0.5 0.5s-0.224 0.5-0.5 0.5h-0.001c-1.794 0-3.249 1.455-3.249 3.249v0.001c0 0.276-0.224 0.5-0.5 0.5s-0.5-0.224-0.5-0.5v0c0-2.346 1.901-4.247 4.246-4.249 0.002 0 0.002-0.001 0.004-0.001z"></path>
</symbol>
<symbol id="icon-cloud" viewBox="0 0 32 32">
<path d="M25.914 13.143c-0.437-4.563-4.236-8.143-8.914-8.143-3.619 0-6.717 2.148-8.146 5.23-0.43-0.136-0.878-0.23-1.353-0.23-2.485 0-4.5 2.016-4.5 4.5 0 0.494 0.099 0.961 0.246 1.404-1.933 1.127-3.246 3.195-3.246 5.594 0 3.59 2.91 6.5 6.5 6.5v0.002l17.999-0.002c4.143 0 7.5-3.357 7.5-7.5 0-3.656-2.621-6.693-6.086-7.355zM24.5 25.998v0.002h-17.999c-2.481-0.002-4.5-2.020-4.5-4.502 0-1.6 0.843-3.045 2.254-3.867 1.371-0.787 1.465-0.943 0.89-2.357-0.097-0.291-0.144-0.544-0.144-0.773 0-1.379 1.121-2.5 2.5-2.5 0 0 0.656-0.047 1.353 0.23 1.147 0.457 1.272 0.020 1.814-1.159 1.147-2.473 3.632-4.072 6.332-4.072 3.6 0 6.576 2.723 6.924 6.334 0.123 1.432 0.123 1.432 1.615 1.773 2.586 0.494 4.461 2.762 4.461 5.391 0 3.033-2.467 5.5-5.5 5.5z"></path>
</symbol>
<symbol id="icon-star" viewBox="0 0 32 32">
<path d="M31.881 12.557c-0.277-0.799-0.988-1.384-1.844-1.511l-8.326-1.238-3.619-7.514c-0.381-0.789-1.196-1.294-2.092-1.294s-1.711 0.505-2.092 1.294l-3.619 7.514-8.327 1.238c-0.855 0.127-1.566 0.712-1.842 1.511-0.275 0.801-0.067 1.683 0.537 2.285l6.102 6.092-1.415 8.451c-0.144 0.851 0.225 1.705 0.948 2.203 0.397 0.273 0.864 0.412 1.331 0.412 0.384 0 0.769-0.094 1.118-0.281l7.259-3.908 7.26 3.908c0.349 0.187 0.734 0.281 1.117 0.281 0.467 0 0.934-0.139 1.332-0.412 0.723-0.498 1.090-1.352 0.947-2.203l-1.416-8.451 6.104-6.092c0.603-0.603 0.81-1.485 0.537-2.285zM23.588 19.363c-0.512 0.51-0.744 1.229-0.627 1.934l1.416 8.451-7.26-3.906c-0.348-0.188-0.732-0.281-1.118-0.281-0.384 0-0.769 0.094-1.117 0.281l-7.26 3.906 1.416-8.451c0.118-0.705-0.114-1.424-0.626-1.934l-6.102-6.092 8.326-1.24c0.761-0.113 1.416-0.589 1.743-1.268l3.621-7.512 3.62 7.513c0.328 0.679 0.982 1.154 1.742 1.268l8.328 1.24-6.102 6.091z"></path>
</symbol>
<symbol id="icon-food" viewBox="0 0 32 32">
<path d="M29.5 21h-2.691c-0.045-0.239-0.1-0.473-0.16-0.706l4.799-2.399c0.494-0.247 0.693-0.848 0.447-1.342-0.248-0.494-0.846-0.692-1.342-0.447l-4.578 2.288c-1.746-3.768-5.555-6.394-9.975-6.394-5.382 0-9.865 3.888-10.809 9h-2.691c-1.378 0-2.5 1.121-2.5 2.5 0 0.49 0.18 0.963 0.505 1.329l3.495 3.932v0.739c0 1.379 1.122 2.5 2.5 2.5h19c1.379 0 2.5-1.121 2.5-2.5v-0.739l3.494-3.932c0.326-0.366 0.506-0.839 0.506-1.329 0-1.379-1.121-2.5-2.5-2.5zM25.799 21h-0.562l0.498-0.25c0.019 0.084 0.046 0.165 0.064 0.25zM16 13c4.029 0 7.5 2.4 9.082 5.841l-0.891 0.445c-1.416-3.115-4.546-5.286-8.191-5.286-4.282 0-7.859 2.993-8.77 7h-1.028c0.929-4.559 4.969-8 9.798-8zM20.576 21c-0.773-1.763-2.531-3-4.576-3s-3.802 1.237-4.576 3h-1.074c0.826-2.326 3.043-4 5.65-4 2.465 0 4.588 1.496 5.508 3.627l-0.932 0.373zM16 20c-0.883 0-1.67 0.391-2.22 1h-1.224c0.694-1.189 1.97-2 3.444-2 1.473 0 2.75 0.811 3.443 2h-1.225c-0.548-0.609-1.335-1-2.218-1zM16 16c-3.165 0-5.842 2.112-6.705 5h-1.032c0.892-3.444 4.017-6 7.737-6 3.246 0 6.043 1.948 7.295 4.734l-0.893 0.446c-1.088-2.457-3.547-4.18-6.402-4.18zM26 28v1.5c0 0.276-0.225 0.5-0.5 0.5h-19c-0.276 0-0.5-0.224-0.5-0.5v-1.5l-4-4.5c0-0.276 0.224-0.5 0.5-0.5h27c0.275 0 0.5 0.224 0.5 0.5l-4 4.5zM7.977 11.712c-0.007-0.014-0.012-0.027-0.018-0.042-0.519-1.253-0.003-2.482 0.463-3.591 0.441-1.052 0.832-1.984 0.428-2.893-0.002-0.004-0.003-0.008-0.005-0.012-0.001-0.003-0.002-0.006-0.003-0.009-0.001-0.002-0.001-0.004-0.001-0.006-0.020-0.053-0.032-0.109-0.032-0.169 0-0.27 0.219-0.49 0.49-0.49 0.208 0 0.385 0.13 0.456 0.313 0.558 1.271 0.051 2.521-0.422 3.647-0.438 1.042-0.794 2.010-0.419 2.892 0.002 0.007 0.002 0.013 0 0.020 0.011 0.040 0.018 0.082 0.018 0.125 0 0.277-0.225 0.503-0.502 0.503-0.194 0-0.36-0.11-0.443-0.27-0.001 0-0.002 0-0.002 0-0.003-0.006-0.005-0.012-0.008-0.018zM20.154 11.566c-0.006-0.013-0.011-0.027-0.016-0.040-0.519-1.253-0.004-2.483 0.461-3.592 0.442-1.052 0.832-1.984 0.428-2.893 0-0.004-0.002-0.008-0.004-0.012s-0.002-0.006-0.004-0.009c0-0.002 0-0.004 0-0.006-0.019-0.053-0.033-0.109-0.033-0.169 0-0.27 0.22-0.49 0.49-0.49 0.209 0 0.385 0.129 0.457 0.313 0.558 1.271 0.051 2.521-0.422 3.647-0.438 1.042-0.793 2.010-0.42 2.892 0.004 0.007 0.004 0.013 0.002 0.020 0.010 0.040 0.018 0.082 0.018 0.125 0 0.277-0.227 0.503-0.504 0.503-0.193 0-0.359-0.111-0.443-0.271h-0.002c-0.002-0.006-0.004-0.012-0.008-0.018zM15.019 7.212c-0.007-0.014-0.012-0.027-0.019-0.041-0.52-1.253-0.004-2.483 0.462-3.592 0.441-1.052 0.832-1.984 0.428-2.893-0.001-0.004-0.003-0.008-0.004-0.012-0.001-0.003-0.002-0.006-0.003-0.009-0.001-0.002-0.001-0.004-0.001-0.006-0.020-0.053-0.032-0.109-0.032-0.169 0-0.27 0.22-0.49 0.49-0.49 0.209 0 0.385 0.13 0.457 0.314 0.558 1.271 0.051 2.521-0.422 3.647-0.438 1.042-0.794 2.010-0.419 2.892 0.002 0.007 0.002 0.013 0 0.020 0.011 0.040 0.018 0.082 0.018 0.125 0 0.277-0.225 0.503-0.502 0.503-0.193 0-0.359-0.111-0.443-0.271-0.001 0-0.002 0-0.002 0-0.003-0.006-0.005-0.012-0.008-0.018z"></path>
</symbol>
<symbol id="icon-forward" viewBox="0 0 18 18">
<path d="M16.711 8.29l-6-5.996c-0.391-0.391-1.026-0.391-1.417 0s-0.391 1.025 0 1.417l4.293 4.29h-11.59c-0.553 0-1.001 0.448-1.001 1s0.448 1 1.001 1h11.59l-4.292 4.29c-0.391 0.391-0.391 1.025 0.001 1.417s1.026 0.391 1.417 0l6-5.997c0.196-0.196 0.294-0.453 0.294-0.71s-0.097-0.514-0.294-0.71z"></path>
</symbol>
<symbol id="icon-Burger" viewBox="0 0 46 32">
<path fill="none" stroke="#d41443" style="stroke: var(--color1, #d41443)" stroke-linejoin="miter" stroke-linecap="butt" stroke-miterlimit="4" stroke-width="2.2857" d="M0 2.286h45.714"></path>
<path fill="none" stroke="#d41443" style="stroke: var(--color1, #d41443)" stroke-linejoin="miter" stroke-linecap="butt" stroke-miterlimit="4" stroke-width="2.2857" d="M0 16h45.714"></path>
<path fill="none" stroke="#d41443" style="stroke: var(--color1, #d41443)" stroke-linejoin="miter" stroke-linecap="butt" stroke-miterlimit="4" stroke-width="2.2857" d="M0 29.714h45.714"></path>
</symbol>
<symbol id="icon-button-arrow" viewBox="0 0 19 32">
<path fill="none" stroke="#d41443" style="stroke: var(--color1, #d41443)" stroke-linejoin="round" stroke-linecap="round" stroke-miterlimit="4" stroke-width="6.4" d="M3.2 3.2l12.8 12.8-12.8 12.8"></path>
</symbol>
<symbol id="icon-cat" viewBox="0 0 32 32">
<path fill="#fff" style="fill: var(--color2, #fff)" d="M16 0c-8.788 0-16 7.212-16 16 0 7.499 5.262 14.312 12.25 16v-5.293c-0.692 0.152-1.33 0.156-2.034-0.052-0.946-0.279-1.714-0.909-2.284-1.869-0.364-0.613-1.008-1.278-1.68-1.23l-0.165-1.868c1.453-0.124 2.711 0.886 3.457 2.14 0.332 0.558 0.713 0.884 1.203 1.029 0.473 0.14 0.982 0.072 1.574-0.137 0.149-1.186 0.692-1.63 1.102-2.255v-0.001c-4.167-0.622-5.828-2.832-6.488-4.578-0.874-2.317-0.405-5.212 1.14-7.041 0.030-0.036 0.084-0.129 0.063-0.194-0.708-2.139 0.155-3.909 0.187-4.097 0.817 0.242 0.95-0.243 3.551 1.337l0.449 0.27c0.188 0.112 0.129 0.048 0.317 0.034 1.086-0.295 2.23-0.458 3.358-0.472 1.136 0.015 2.273 0.178 3.404 0.484l0.145 0.015c-0.013-0.002 0.040-0.009 0.127-0.062 3.248-1.968 3.132-1.324 4.003-1.608 0.032 0.188 0.883 1.987 0.182 4.099-0.095 0.291 2.816 2.956 1.203 7.235-0.659 1.746-2.32 3.957-6.487 4.578v0.001c0.534 0.814 1.176 1.247 1.173 2.927v6.608c6.988-1.688 12.25-8.501 12.25-16 0-8.788-7.212-16-16-16v0z"></path>
</symbol>
<symbol id="icon-close" viewBox="0 0 32 32">
<path fill="none" stroke="#fff" style="stroke: var(--color2, #fff)" stroke-linejoin="miter" stroke-linecap="butt" stroke-miterlimit="4" stroke-width="2" d="M2.519 2l26.963 28"></path>
<path fill="none" stroke="#fff" style="stroke: var(--color2, #fff)" stroke-linejoin="miter" stroke-linecap="butt" stroke-miterlimit="4" stroke-width="2" d="M2 29.481l28-26.963"></path>
</symbol>
<symbol id="icon-facebook" viewBox="0 0 16 32">
<path fill="#fff" style="fill: var(--color2, #fff)" d="M14.143 15.972h-4.034v14.865h-6.112v-14.865h-2.907v-5.224h2.907v-3.381c0-2.418 1.142-6.203 6.166-6.203l4.527 0.019v5.071h-3.285c-0.539 0-1.296 0.271-1.296 1.424v3.075h4.567l-0.534 5.219z"></path>
</symbol>
<symbol id="icon-house" viewBox="0 0 35 32">
<path fill="#d31342" style="fill: var(--color3, #d31342)" d="M34.253 15.613c0.599-0.659 0.541-1.669-0.129-2.255l-14.772-12.926c-0.671-0.586-1.745-0.574-2.402 0.028l-14.822 13.587c-0.656 0.602-0.689 1.611-0.071 2.252l0.372 0.387c0.617 0.642 1.613 0.718 2.224 0.17l1.108-0.992v14.523c0 0.891 0.722 1.613 1.612 1.613h5.778c0.89 0 1.612-0.721 1.612-1.613v-10.16h7.37v10.16c-0.013 0.89 0.624 1.612 1.515 1.612h6.123c0.89 0 1.613-0.722 1.613-1.613v-14.318c0 0 0.306 0.268 0.683 0.6s1.168 0.066 1.767-0.594l0.42-0.462z"></path>
</symbol>
<symbol id="icon-kawychki" viewBox="0 0 43 32">
<path fill="#e1e1e1" style="fill: var(--color4, #e1e1e1)" d="M32.014 0c1.929 0 3.75 0.52 5.464 1.561s3.107 2.537 4.179 4.488c1.029 1.951 1.543 4.249 1.543 6.894s-0.643 5.225-1.929 7.74c-0.429 0.911-1.2 2.081-2.314 3.512-1.157 1.431-2.229 2.667-3.214 3.707l-4.050 4.098-2.893-4.813c2.014-1.257 3.793-2.818 5.336-4.683 1.543-1.821 2.314-3.491 2.314-5.008 0-0.78-0.171-1.409-0.514-1.886-1.5 1.084-3.171 1.626-5.014 1.626-1.329 0-2.593-0.412-3.793-1.236-1.243-0.78-2.229-1.821-2.957-3.122-0.771-1.258-1.157-2.558-1.157-3.902 0-1.518 0.45-2.97 1.35-4.358 0.857-1.388 1.993-2.515 3.407-3.382 1.371-0.824 2.786-1.236 4.243-1.236zM8.936 0c1.929 0 3.75 0.52 5.464 1.561s3.107 2.537 4.179 4.488c1.029 1.951 1.543 4.249 1.543 6.894 0 1.864-0.236 3.534-0.707 5.008-0.471 1.518-1.286 3.1-2.443 4.748-1.114 1.561-2.164 2.862-3.15 3.902-0.986 1.084-2.7 2.884-5.143 5.398l-2.893-4.813c2.014-1.257 3.793-2.818 5.336-4.683 1.543-1.821 2.314-3.491 2.314-5.008 0-0.78-0.171-1.409-0.514-1.886-1.5 1.084-3.171 1.626-5.014 1.626-1.329 0-2.593-0.412-3.793-1.236-1.243-0.78-2.229-1.821-2.957-3.122-0.771-1.258-1.157-2.558-1.157-3.902 0-1.518 0.429-2.97 1.286-4.358s1.993-2.515 3.407-3.382c1.371-0.824 2.786-1.236 4.243-1.236z"></path>
</symbol>
<symbol id="icon-point" viewBox="0 0 32 32">
<path fill="#d9d9d9" style="fill: var(--color5, #d9d9d9)" d="M32 16c0 8.837-7.163 16-16 16s-16-7.163-16-16c0-8.837 7.163-16 16-16s16 7.163 16 16z"></path>
</symbol>
<symbol id="icon-telegram" viewBox="0 0 44 32">
<path fill="#fff" style="fill: var(--color2, #fff)" d="M17.343 21.048l-0.675 8.86c0.966 0 1.384-0.387 1.885-0.852l4.527-4.038 9.381 6.412c1.72 0.895 2.933 0.424 3.397-1.477l6.159-26.93c0.546-2.374-0.92-3.302-2.596-2.72l-36.194 12.933c-2.47 0.895-2.433 2.18-0.42 2.762l9.253 2.686 21.494-12.552c1.012-0.625 1.931-0.279 1.175 0.346l-17.386 14.57z"></path>
</symbol>
<symbol id="icon-white-arrow" viewBox="0 0 26 32">
<path fill="none" stroke="#fff" style="stroke: var(--color2, #fff)" stroke-linejoin="round" stroke-linecap="round" stroke-miterlimit="4" stroke-width="6.4" d="M5.172 3.2l14.169 12.8-14.169 12.8"></path>
</symbol>
<symbol id="icon-Burger1" viewBox="0 0 46 32">
<path fill="none" stroke="#d41443" style="stroke: var(--color1, #d41443)" stroke-linejoin="miter" stroke-linecap="butt" stroke-miterlimit="4" stroke-width="2.2857" d="M0 2.286h45.714"></path>
<path fill="none" stroke="#d41443" style="stroke: var(--color1, #d41443)" stroke-linejoin="miter" stroke-linecap="butt" stroke-miterlimit="4" stroke-width="2.2857" d="M0 16h45.714"></path>
<path fill="none" stroke="#d41443" style="stroke: var(--color1, #d41443)" stroke-linejoin="miter" stroke-linecap="butt" stroke-miterlimit="4" stroke-width="2.2857" d="M0 29.714h45.714"></path>
</symbol>
<symbol id="icon-button-arrow1" viewBox="0 0 19 32">
<path fill="none" stroke="#d41443" style="stroke: var(--color1, #d41443)" stroke-linejoin="round" stroke-linecap="round" stroke-miterlimit="4" stroke-width="6.4" d="M3.2 3.2l12.8 12.8-12.8 12.8"></path>
</symbol>
<symbol id="icon-point1" viewBox="0 0 32 32">
<path fill="#d9d9d9" style="fill: var(--color5, #d9d9d9)" d="M32 16c0 8.837-7.163 16-16 16s-16-7.163-16-16c0-8.837 7.163-16 16-16s16 7.163 16 16z"></path>
</symbol>
<symbol id="icon-quotes-right" viewBox="0 0 32 32">
<path d="M25 20c-3.866 0-7-3.134-7-7s3.134-7 7-7 7 3.134 7 7l0.031 1c0 7.732-6.268 14-14 14v-4c2.671 0 5.182-1.040 7.071-2.929 0.364-0.364 0.695-0.75 0.995-1.157-0.357 0.056-0.724 0.086-1.097 0.086zM7 20c-3.866 0-7-3.134-7-7s3.134-7 7-7 7 3.134 7 7l0.031 1c0 7.732-6.268 14-14 14v-4c2.671 0 5.182-1.040 7.071-2.929 0.364-0.364 0.695-0.75 0.995-1.157-0.357 0.056-0.724 0.086-1.097 0.086z"></path>
</symbol>
<symbol id="icon-mug" viewBox="0 0 32 32">
<path d="M30 10h-6v-3c0-2.761-5.373-5-12-5s-12 2.239-12 5v20c0 2.761 5.373 5 12 5s12-2.239 12-5v-3h6c1.105 0 2-0.895 2-2v-10c0-1.105-0.895-2-2-2zM5.502 8.075c-1.156-0.381-1.857-0.789-2.232-1.075 0.375-0.286 1.075-0.694 2.232-1.075 1.811-0.597 4.118-0.925 6.498-0.925s4.688 0.329 6.498 0.925c1.156 0.381 1.857 0.789 2.232 1.075-0.375 0.286-1.076 0.694-2.232 1.075-1.811 0.597-4.118 0.925-6.498 0.925s-4.688-0.329-6.498-0.925zM28 20h-4v-6h4v6z"></path>
</symbol>
<symbol id="icon-spoon-knife" viewBox="0 0 32 32">
<path d="M7 0c-3.314 0-6 3.134-6 7 0 3.31 1.969 6.083 4.616 6.812l-0.993 16.191c-0.067 1.098 0.778 1.996 1.878 1.996h1c1.1 0 1.945-0.898 1.878-1.996l-0.993-16.191c2.646-0.729 4.616-3.502 4.616-6.812 0-3.866-2.686-7-6-7zM27.167 0l-1.667 10h-1.25l-0.833-10h-0.833l-0.833 10h-1.25l-1.667-10h-0.833v13c0 0.552 0.448 1 1 1h2.604l-0.982 16.004c-0.067 1.098 0.778 1.996 1.878 1.996h1c1.1 0 1.945-0.898 1.878-1.996l-0.982-16.004h2.604c0.552 0 1-0.448 1-1v-13h-0.833z"></path>
</symbol>
<symbol id="icon-arrow-right2" viewBox="0 0 32 32">
<path d="M19.414 27.414l10-10c0.781-0.781 0.781-2.047 0-2.828l-10-10c-0.781-0.781-2.047-0.781-2.828 0s-0.781 2.047 0 2.828l6.586 6.586h-19.172c-1.105 0-2 0.895-2 2s0.895 2 2 2h19.172l-6.586 6.586c-0.39 0.39-0.586 0.902-0.586 1.414s0.195 1.024 0.586 1.414c0.781 0.781 2.047 0.781 2.828 0z"></path>
</symbol>
</defs>
</svg>
